<?xml version="1.0" encoding="utf-8"?>
<!-- Generator: Adobe Illustrator 24.1.3, SVG Export Plug-In . SVG Version: 6.00 Build 0)  -->
<svg version="1.1" id="Layer_1" xmlns="http://www.w3.org/2000/svg" xmlns:xlink="http://www.w3.org/1999/xlink" x="0px" y="0px"
	 viewBox="0 0 447.3 48" style="enable-background:new 0 0 447.3 48;" xml:space="preserve">
<style type="text/css">
	.st0{fill:#ECE9E7;}
	.st1{fill:#ECE8E6;}
	.st2{fill:#EDE9E7;}
	.st3{fill:#EDEAE8;}
	.st4{fill:#EBE7E5;}
	.st5{fill:#EBE7E4;}
	.st6{fill:#EEEBE9;}
	.st7{fill:#EBE6E4;}
	.st8{fill:#EBE6E3;}
	.st9{fill:#ECE7E4;}
	.st10{fill:#ECE6E2;}
	.st11{fill:#E8DED7;}
	.st12{fill:#EBE3DC;}
	.st13{fill:#EDE9E6;}
	.st14{fill:#EAE3E0;}
	.st15{fill:#EBE4E0;}
	.st16{fill:#EAE2DE;}
	.st17{fill:#ECE6E3;}
	.st18{fill:#EAE2D8;}
	.st19{fill:#ECE7E3;}
	.st20{fill:#EAE3DE;}
	.st21{fill:#EAE6E3;}
	.st22{fill:#E7DDD5;}
	.st23{fill:#E7DBD2;}
	.st24{fill:#EBE5E0;}
	.st25{fill:#E6DAD2;}
	.st26{fill:#E8E0DB;}
	.st27{fill:#E6DDD6;}
	.st28{fill:#E8E1DB;}
	.st29{fill:#EAE1DB;}
	.st30{fill:#EAE4DF;}
	.st31{fill:#CCA241;}
	.st32{fill:#E8E1D5;}
	.st33{fill:#E4DBCE;}
	.st34{fill:#EBE7E1;}
	.st35{fill:#262323;}
	.st36{fill:#D0AA53;}
	.st37{fill:#E7E2DE;}
	.st38{fill:#EBE5E1;}
	.st39{fill:#DCC38B;}
	.st40{fill:#DED5C6;}
	.st41{fill:#E6E0DB;}
	.st42{fill:#CDA345;}
	.st43{fill:#E7DED1;}
	.st44{fill:#E6DED5;}
	.st45{fill:#EBE4DF;}
	.st46{fill:#D1AD5A;}
	.st47{fill:#E8DDD7;}
	.st48{fill:#8A8276;}
	.st49{fill:#8B8378;}
	.st50{fill:#EAE4E0;}
	.st51{fill:#EBE4DE;}
	.st52{fill:#E7DDD6;}
	.st53{fill:#EEEBE7;}
	.st54{fill:#ECE9E6;}
	.st55{fill:#E7DFDB;}
	.st56{fill:#E5DAD2;}
	.st57{fill:#E9E2DD;}
	.st58{fill:#CEA64B;}
	.st59{fill:#CFA64B;}
	.st60{fill:#CDA446;}
	.st61{fill:#E6DBCC;}
	.st62{fill:#E3D2B2;}
	.st63{fill:#CEA549;}
	.st64{fill:#EAE5E3;}
	.st65{fill:#EAE3DC;}
	.st66{fill:#CAC4C0;}
	.st67{fill:#DCD7D4;}
	.st68{fill:#EAE3D9;}
	.st69{fill:#DED7D1;}
	.st70{fill:#CCC2B5;}
	.st71{fill:#B1B0B1;}
	.st72{fill:#938B81;}
	.st73{fill:#8C8378;}
	.st74{fill:#E6DAC7;}
	.st75{fill:#938C81;}
	.st76{fill:#8F887D;}
	.st77{fill:#D8D4D0;}
	.st78{fill:#938D82;}
	.st79{fill:#D7B66E;}
	.st80{fill:#D6B46B;}
	.st81{fill:#DBC189;}
	.st82{fill:#938B80;}
	.st83{fill:#D4AF5E;}
	.st84{fill:#E2D0AC;}
	.st85{fill:#E3DACC;}
	.st86{fill:#D1A84F;}
	.st87{fill:#B2ADA5;}
	.st88{fill:#D8BA78;}
	.st89{fill:#E4D6B8;}
	.st90{fill:#B7B3AC;}
	.st91{fill:#E2D1B2;}
	.st92{fill:#837B6F;}
	.st93{fill:#E8E2DE;}
	.st94{fill:#81796C;}
	.st95{fill:#DEC796;}
	.st96{fill:#E0CA9E;}
	.st97{fill:#DCD8D4;}
	.st98{fill:#E2CEAB;}
	.st99{fill:#E1D0AC;}
	.st100{fill:#E4D6BA;}
	.st101{fill:#E0CB9F;}
	.st102{fill:#E3D4B2;}
	.st103{fill:#D8B875;}
	.st104{fill:#DABF84;}
	.st105{fill:#DDC490;}
	.st106{fill:#DABD7D;}
	.st107{fill:#D4B262;}
	.st108{fill:#D5B468;}
</style>
<g>
	<g>
		<path class="st0" d="M82.8,0.5c9.8,0,19.6,0,29.4,0c2.3,1.6-0.4,2.7-1.2,3.9c-0.7,1.1-2.5,1.7-3.3,2.3c3.7-1.3,4.3-4.4,7.6-6.3
			c3,0,7.3-0.7,8.8,0.2c1.5,0.9,0.3,3.6,0.3,5.4c0,5,0,10.1,0,15.1c-1.7,0.8-3.5,0-3.6-0.7c-0.4-3-4.1-2.3-6.8-2.6
			c-0.3,0-0.6-0.2-0.9-0.3c-0.8-0.5-1.1-1.2-1.5-1.8c-0.7-0.4-1.2-0.3-1.7,0.1c-1.7,3.4-1.9,3.4-6.2,1.3c-1-0.5-1.9-1.2-3.4-0.7
			c-2.1,1.5,0.6,4-2.5,5.3c-4-1.4-1.4-3.8-2.4-5.7c-0.9-1.6-2.9-1-4.6-0.9c-0.5,0-1,0-1.4,0c-2.7-0.4-5.3-0.2-7.9,0.1
			c-2.8-0.2-5.6-0.1-8.2-0.8c-1.6-2.8,2.3-2.9,4.8-3.4c3.2-0.7,3.2-0.6,5.3-2.6c-2-0.6-3.1,0.4-4.3,0.8c-2.6,1-3.8,0.2-3.8-1.4
			c0-0.9,0.4-1.8,0.2-2.8C74.8,3,75.4,1,80.5,1.2C81.3,1.2,82.1,0.8,82.8,0.5z"/>
		<path class="st1" d="M1.7,37.5c0-3.6,0-7.1,0-10.7c1.6-1.2,3.1-1.6,3.3,0.4c0.2,1.4,0.4,3.2,2.4,3.4c2.2,0.2,2.9-1.8,3.8-2.9
			c1.1-1.3,2.2-2.8,1.2-4.3c-2.3-0.3-3.9,2.3-5.8,0.6c-1.7-1.5-2.7-3.4-1.6-5.3c0.6-1.1,1.6-2.2,4-1.2c0.6,0.8,0.6,1.7,2.4,2.2
			c5.8,1.5,7,3.2,5.4,6.9c-0.5,1.2-1.5,2.3-2.5,3.4c-1.2,1.7-1,2.9,2.6,3.1c3.1-1,6.5-1.6,9.7-2.5c2.1-0.6,3.5-1.6,4.5-2.8
			c0.6-0.5,1.1-1.1,2-1.5c1.7-0.7,3.5-1,5.3-0.2c1.7,1.4,0.8,3.1,1.2,4.7c0.1,0.6,0.7,1.1,1.3,1.6c4,2.3,1.7,4.9,1.1,7.4
			c-0.2,0.8-1.3,1.1-2.6,1.1c-1.6,0.1-2.2,0.7-2.5,1.6c-1.6,1.8,3.1,3.2,1.1,5c-4.7,0-9.5,0-14.2,0c-1.2-0.7-3.3-1.1-3.5-2.1
			c-0.9-3.6-4.8-3.8-9.3-3.5c-2.2-0.6-4.9-0.2-6.7-1.4C3,39.8,2.9,38.5,1.7,37.5z"/>
		<path class="st2" d="M46.3,0.5c4.7,0,9.5,0,14.2,0c0.8,0.8,2.1,0.7,3.4,0.8c1.9,0.1,4.4-0.8,5.7,0.4c1.8,1.7,4.2,3.2,4.7,5.4
			c0.2,0.9,0,1.7-1.2,2.2C72,9.8,71,9.6,69.8,9.2c-4.1-1.6-4.1-1.5-4.6,1.6c0,0.2-0.1,0.4-0.3,0.6c-2.8,2.8-7.7,3.3-12.2,4.2
			c-1,0.4-1.4,1.1-2.3,1.5c-0.6,0.2-1.3,0.2-2,0.1c-0.9-0.2-1.6-0.5-2.3-0.9c-1.5-0.8-3.4-0.3-5.1-0.6c-2.4-0.2-2.3-1.4-1.9-2.7
			c-3.2,1.4,0.6,3.1-1.2,4.4c-0.4,0.4-0.9,0.7-1.5,0.9c-0.4,0.1-0.9,0.1-1.4,0c-0.4-0.1-0.7-0.3-1-0.5c-0.9-1.1-2.6-1.3-4.3-1.5
			c-3.2-0.7-6.7-0.7-9.7-1.7c-1.2-1.2,0.2-2,1.1-2.9c0.9-0.6,2.1-1,3.4-1.1c1.6-0.2,0-0.5,0-0.7c-0.1-0.3-0.1-0.6-0.1-0.9
			c0-1.2,0.2-2.3,2.3-2.8c2-0.5,2.4,1,3.8,1.5c0.8-1.7-1-4.1,3.4-4.7c3.4,0.1,4.5,0.8,1.6,2.3c2.1-0.2,2.5-1.8,4.3-2.4
			C43.2,3.3,43.8,0.9,46.3,0.5z"/>
		<path class="st3" d="M34.1,3.6c-2.5,0.3-2.4,1.5-1.8,2.4c1.1,1.8-0.4,2.7-2.8,3.5c-0.3-0.4-0.7-0.7-0.9-1.1
			c-0.2-0.7,0.9-1.9-1.3-1.8c-1.6,0.1-1.9,0.8-0.9,1.8c0.7,0.6-1.1,0.9-1.4,1.5c0.3,1.4-2.2,1.1-3,1.9c0.1,1.1-1.4,1.7-2,2.5
			c-2.8,2.2-5.8,4-10.9,3.2c-3.4,0.4-3.7,1.9-2.8,3.6c0.5,1,1.5,1.9,1.3,3.1C9,24,9.2,23.5,9.3,23c0.3-1.1,1.8-1.2,3.1-1
			c1.5,0.2,2.4,0.8,2.3,1.8c-0.5,3-2.5,5.6-5.4,7.9c-0.7,0.5-3.5,0.8-3.4,0.7c1-1.9-4.6-2.3-2.5-4.5c1.5-1.5,0.2-1.6-1.7-1
			c0-3.8,0-7.5,0-11.3c0.9-1,2.1-1.8,3.3-2.7c3-2.1,3.5-4.6,2.2-7.3c0.1-1,1.5-1.4,2.6-1.9c0.5-0.3,0,0.2,0.3-0.2
			C10.5,3,9.8,3.4,9.6,3.3C8,3.6,6.5,3.5,5.8,2.5c-0.9-1.2,0.9-1.5,2-2c3.7,0,7.4,0,11.1,0c4.1,1.8,8.1,0.3,12.2,0c2,0,4.1,0,6.1,0
			C38.9,2.6,35.5,2.7,34.1,3.6z"/>
		<path class="st1" d="M64.5,11.2c-0.2-0.7-0.4-1.4-0.7-2.1c-0.5-1,0.1-1.8,1.3-2.5c1.1,1.1,4.3-0.4,4.8,1.5C70,8.7,70.8,9.2,72,9
			c1.4-0.3,1.3-0.9,1.1-1.8c-0.9-3.4-5-5.7-10.5-5c-3.7,0.5-1.5-1.2-2.1-1.7c7.4,0,14.9,0,22.3,0C82,1,81.2,2,80.4,2
			c-5.7,0-3.9,2.3-3.3,4.1c0,0.1,0.1,0.2,0.2,0.3c1.6,1.2-3.8,2-0.6,2.9c1.6,0.4,2.4-1.8,4.7-1.9c1.2-0.1,2.6-0.8,3.5,0.3
			c0.8,0.9,0.8,1.5-0.7,2.4c-1.9,1.2-3,2.5-6.5,2.1c-1.7-0.2-3.9,1-5.1,2.2C70.6,12.5,66.6,12.8,64.5,11.2z"/>
		<path class="st4" d="M38.2,47.6c0.3-1.8-5.3-2.7-2-5c4,0.7,7.1-0.4,10.7-1.4c4.4-1.2,9.3-2.6,14.4-0.5c1.7,0.7,2.5,1.3,1.5,2.5
			c-1,0.5-2.3,0.2-3.4,0.3c-1.6,0-2.4,0.5-2.5,1.5c0,0.9-0.2,1.9-1.5,2.5C49.6,47.6,43.9,47.6,38.2,47.6z"/>
		<path class="st5" d="M113.2,17.4c2,0,3.9,0,5.8-0.5c1.1-0.3,2.4-0.4,3.3,0.1c1.3,0.8-0.6,1.1-0.9,1.7c-1.1,1.7,1.2,2,2.9,2.4
			c0,0.2,0,0.4,0,0.6c-0.8,0.6-1.1,1.3,0,1.9c0,0.8,0,1.7,0,2.5c-3.5,1.9-8,1-12,1.8c-1.1-0.1-1.9-0.4-2.7-0.9
			c-0.7-0.5-1.1-1-1.3-1.7c-0.3-1.3,1.4-1.8,2.6-2.5C112.1,21.3,112,19.2,113.2,17.4z"/>
		<path class="st6" d="M11.8,41.3c1.8,0.6,3.1-0.5,4.7-0.5c1.7-0.1,3.7,0,3.6,1c0,2.3,2.8,3.8,3.8,5.8c-5.1,0-10.1,0-15.2,0
			c-4.4-2.3-0.9-4,1-5.8C10.3,41.4,10.9,41.1,11.8,41.3z"/>
		<path class="st7" d="M124.3,36.9c0,2.9,0,5.9,0,8.8c-0.6,0.3-1.2,0.5-2,0.5c-2.8-0.2-4.7-1.4-7-2.1c-0.6-0.1-1.2-0.3-1.9-0.2
			c-2.5,0.1-4.3-0.4-4.4-2.2c0-1.5,1.5-2.3,3.8-2.3c2.8,0,4.2-1.1,5.4-2.4c0.4-0.4,1-0.7,1.6-0.9c0.5-0.1,0.9-0.2,1.4-0.2
			C122.5,35.9,123.5,36.4,124.3,36.9z"/>
		<path class="st8" d="M104,47.6c-1,0-2,0-3,0c-2-0.4-4.3-0.6-5.8-1.8c-0.9-0.4-1.7-1-2-1.7c0-0.1,0-0.3,0-0.4
			c0.1-0.3,0.2-0.5,0.5-0.8c0.9-0.6,1.9-1.2,3-1.7c3.1-0.1,4.3-1.3,4.6-3.1c0.7-0.7,1.8-1.2,3.1-1.4c2.1-0.2,4.2-0.3,6.2,0.2
			c2,0.9,0.5,1.5-0.3,2.5c-1.7,1.8-5.1,3.5-2.8,6.1C107,46.7,105,46.8,104,47.6z"/>
		<path class="st9" d="M88.8,47.6c-4.7,0-9.5,0-14.2,0c-1-1.1-4.7-0.7-4-2.7c4-1.4,8.6-1.6,12.7-2.8c0.7-0.1,1.5-0.1,2.2,0
			c1.7,0.5,3.6,0.8,5.2,1.5C91.4,45.2,89.9,46.3,88.8,47.6z"/>
		<path class="st2" d="M7.7,5.5c2.5,1.5,1.5,6.7-1.6,8.1c-1.5,0.7-3,1.3-4.5,1.9c0-1,0-2.1,0-3.1c1.5-1.4,1.2-3,1.8-4.5
			C3.9,6.6,4.1,4.8,7.7,5.5z"/>
		<path class="st1" d="M10.8,41.9c-0.3,1.9-5,3.3-2,5.7c-7.1,0-7.1,0-7.1-4.4c0-1.3,0-2.5,0-3.8c1.6-0.4,2.1,0.4,2.7,1
			c0.6,0.9,1.2,1.7,3.2,1.1C8.7,41.3,9.9,41.3,10.8,41.9z"/>
		<path class="st10" d="M7.7,5.5c-2.7,0.4-2.9,1.7-3,3c-0.1,1.6-0.7,3-3.1,3.9c0-1,0-2.1,0-3.1c0.8-0.6,1.1-1.3,0-1.9
			c0-0.4,0-0.8,0-1.3c1-1.8,2.3-3.4,6.2-2.9c0.8,0.1,1.4-0.4,1.9-0.9c1.4,0.1,2.8-1,4.6,0.2C12.1,3.6,9.9,4.5,7.7,5.5z"/>
		<path class="st11" d="M116.2,43.2c2,0.8,4.1,1.7,6.1,2.5c-0.8,1.1-2.8,1.2-4.1,1.9c-2,0-4.1,0-6.1,0c-0.3-0.2-0.5-0.5-0.7-0.7
			C109.5,43.3,109.5,43.3,116.2,43.2z"/>
		<path class="st12" d="M88.8,47.6c-1.8-1.8,0.7-2.7,2-3.8c1.3-0.4,1.8,0.4,2.5,0.8c0.8,0.3,1.4,0.9,2.5,0.5
			c1.7,0.8,3.4,1.7,5.1,2.5C96.9,47.6,92.9,47.6,88.8,47.6z"/>
		<path class="st13" d="M9.8,2.4C7.8,4.2,3.3,4,1.7,6.1c0-0.6,0.2-1.3,0-1.9C0.6,1,2.5-0.2,7.7,0.5c-0.2,0.7-2.3,1.1-1,2
			C7.7,3.2,8.8,2.6,9.8,2.4z"/>
		<path class="st14" d="M115.2,0.5c-1.6,3.6-6.7,5.8-9.2,9.9c-1.1-2.4-0.1-3.5,1.7-4.5c2.7-1.4,4.2-3.2,4.4-5.4
			C113.2,0.5,114.2,0.5,115.2,0.5z"/>
		<path class="st15" d="M34.1,3.6c0-1.4,3.3-1.6,3-3.1c0.7,0,1.4,0,2,0c1.7,0.6,2.2,1.4,1,2.5c-0.8,1.8-3.2,2.5-5.3,3.1
			C32,5.3,39,4.2,34.1,3.6z"/>
		<path class="st16" d="M55.4,47.6c1.1-1.8-2.9-5.1,4.1-5c1,0.8,2.2,1.6,1,2.6c-1.2,1,0.8,1.1,1.2,1.6c0.2,0.3,0.2,0.5-0.2,0.8
			C59.4,47.6,57.4,47.6,55.4,47.6z"/>
		<path class="st17" d="M40.2,3c-0.3-0.8-0.7-1.7-1-2.5c2.4,0,4.7,0,7.1,0c-0.7,0.8-1.6,1.5-2.1,2.4C42.9,5.4,41.6,4.5,40.2,3z"/>
		<path class="st18" d="M124.3,29.4c0,1.5,0,2.9,0,4.4c-0.4,0.2-0.8,0.3-1.3,0.4c-1.1-0.1-1.9-0.4-2.6-0.9c-1.1-1.5-2.9-3-1.8-4.8
			C120.9,27.7,122.7,28.4,124.3,29.4z"/>
		<path class="st19" d="M31.1,0.5c-4.8,2.3-10.1,2.3-12.2,0C22.9,0.5,27,0.5,31.1,0.5z"/>
		<path class="st20" d="M70.6,45.1c1.3,0.9,4.2,0.7,4.1,2.5c-2,0-4.1,0-6.1,0c-0.6-0.3-1.4-0.6-1.6-1.2c0-0.7-0.1-1.4,1.1-1.8
			C69.1,44.5,69.9,44.6,70.6,45.1z"/>
		<path class="st21" d="M67.5,46.3c0.3,0.4,0.7,0.8,1,1.3c-2.4,0-4.7,0-7.1,0c0-0.2,0-0.4,0-0.6c-0.6-1.1,0-1.9,1.7-2.2
			C65.3,44.4,66.4,45.5,67.5,46.3z"/>
		<path class="st22" d="M124.3,29.4c-2-0.2-4.1-0.4-6.1-0.6c-0.6-0.3-0.6-0.7-0.4-1.2c2-0.6,4.1-1.1,6.5-0.7
			C124.3,27.7,124.3,28.5,124.3,29.4z"/>
		<path class="st23" d="M112.1,47c0,0.2,0,0.4,0,0.6c-2.7,0-5.4,0-8.1,0c0.1-1.2,1.1-1.8,3-1.9C109,45.8,111.4,45,112.1,47z"/>
		<path class="st24" d="M124.3,26.9c-2,0.2-4.1,0.4-6.1,0.6c-1.7,1-3.5,1.6-5.9,0.9c-0.5-0.3-0.5-0.6-0.2-0.9
			c3.9-1.1,8.1-0.9,12.2-1.3C124.3,26.5,124.3,26.7,124.3,26.9z"/>
		<path class="st25" d="M118.2,47.6c0.8-1.1,1.7-2.1,4.1-1.9c0.7,0,1.4,0,2,0C124.8,49.5,120.1,46.8,118.2,47.6z"/>
		<path class="st26" d="M3.7,40.7c-0.7-0.4-1.4-0.8-2-1.3c0-0.6,0-1.3,0-1.9c1.6,0.6,2.9,1.3,3,2.5C5,40.7,4.6,40.8,3.7,40.7z"/>
		<path class="st27" d="M123.3,33.8c0.3,0,0.7,0,1,0c0,1,0,2.1,0,3.1c-1.1,0-2.3,0.1-3.1-0.6c-0.5-0.4-0.2-0.7,0.1-1.1
			C121.8,34.7,122.5,34.2,123.3,33.8z"/>
		<path class="st28" d="M124.3,23.7c-3-0.6-1.6-1.3,0-1.9C124.3,22.5,124.3,23.1,124.3,23.7z"/>
		<path class="st29" d="M1.7,7.4c3,0.6,1.6,1.3,0,1.9C1.7,8.7,1.7,8,1.7,7.4z"/>
		<path class="st30" d="M64.5,11.2c2.5-0.9,5.2,2.7,7.1-0.3c3,1.1-2.3,2.5,1.1,3.4c3.1-0.1,6.1,0,9.1,0.6c0.2,0.1,0.4,0.2,0.6,0.3
			c1.8,1.8,0.4,3.8,1.5,5.8c1.7-0.6,2.9-2.4,5.4-0.9c0.3,0.7-0.3,1.4-0.3,2.2c-0.1,1.5-0.6,2.7-3.7,2.6c-2.9-0.2-5.5-0.6-5.7-2.7
			c-0.2-1.3,0.5-2.7-0.6-4c-0.2-0.3-0.4-0.6-0.5-0.9c-0.4-0.9-1.2-1.4-2.8-1.2c-1.4,0.2-2,0.7-2.1,1.5c-0.2,1.1-0.4,2.3,0.2,3.5
			c1.8-0.3,3-2.7,5.5-0.7c0.1,0.6-0.2,1.2-0.6,1.8c-0.9,1.7-2.4,3.1-5.7,2.8c-3.1-0.3-3.5-1.9-3.6-3.6c-0.1-1.3,0.1-2.7-0.2-4
			c-0.3-0.5-0.6-1.1-1.4-1.4c-0.4-0.1-0.7-0.3-1.1-0.4c-3.4-1.2-6.3,1.2-9.6,0.5c-1.8,0-3.5,0.1-5.1-0.6c-0.2-0.1-0.3-0.3-0.5-0.4
			C56.1,14.2,60.7,13.2,64.5,11.2z"/>
		<path class="st31" d="M99.2,15c4.3-0.3,5.5,2.3,8.3,3.6c1.4-1.2,0.5-2.3,0.6-3.4c1.3-1,2.7-0.6,4.2-0.2c0.7,2.1,0.1,4.3,0.3,6.5
			c0.1,1.6-0.9,2.3-3.4,2.3c-0.8,0-1.6-0.1-2.3-0.4c-0.6-0.3-1-0.8-1.5-1.2c-0.4-0.4-0.8-1.1-1.7-0.9c-0.7,0.2-0.1,0.9-0.2,1.4
			c-0.1,0.3-0.3,0.6-0.7,0.8c-1.4,0.6-2.9,0.6-4.5,0.2c-0.5-0.2-0.8-0.4-0.9-0.8c0-0.4,0.2-0.6,0.7-0.9C99.1,19.6,97.5,17.2,99.2,15
			z"/>
		<path class="st32" d="M98.1,22.6c0.1,0.1,0.1,0.2,0,0.3c-1.4,2.1-4.5,2.3-7.2,1.8c-3-0.6-2-2.4-1.4-3.7c0.4-1-0.1-1.8-0.4-2.7
			c-0.2-0.3-0.4-0.6-0.5-0.9c-0.2-0.8-0.6-1.6-0.1-2.4c0.4-0.3,0.9-0.3,1.3,0c0.3,0,0.7,0,1,0c0.4-0.2,0.9-0.2,1.3,0
			c2.1,1.7,0.8,3.8,1.7,6c1.1-2.2-0.3-4.3,1.8-6c0.5-0.2,0.9-0.2,1.3,0c0.5,2.3-1,4.7,0.9,6.9C98.4,22,98.5,22.3,98.1,22.6z"/>
		<path class="st16" d="M117.6,10.3c0.9,0.4,3.1-0.2,3.1,0.9c0,1.2-2.1,1.5-3.7,1.6c-1.6,0.1-1.7-0.8-1.7-1.5
			C115.3,10.5,115.8,9.9,117.6,10.3z"/>
		<path class="st33" d="M108.1,23.1c2.9,0.3,4.4-0.3,4.1-2.3c-0.3-1.9-0.2-3.9-0.3-5.8c0.3-0.4,0.8-0.4,1.3-0.1c0,0.8,0,1.7,0,2.5
			c1.5,2.2-0.3,4.2-1,6.3C110.6,24,108.9,24.8,108.1,23.1z"/>
		<path class="st33" d="M98.1,22.6c-0.1-0.3-0.1-0.6-0.2-0.8c0.7-2.3-1.3-4.7,1.4-6.8C98,17.5,99.9,20.2,98.1,22.6z"/>
		<path class="st34" d="M89.8,14.9c-0.4,0-0.8,0.1-1.2,0.1c-2.2,1.2-4.5,1.1-6.7,0.1c0,0-0.2-0.1-0.2-0.1C84.4,14,87.1,14,89.8,14.9
			z"/>
		<path class="st34" d="M92.1,15c-0.4,0-0.8-0.1-1.3-0.1c2-0.9,4.1-0.9,6.1,0c-0.4,0-0.9,0.1-1.3,0.1C94.5,15.7,93.3,15.7,92.1,15z"
			/>
		<path class="st5" d="M113.2,14.9c-0.4,0-0.8,0.1-1.3,0.1c-1.2,0-2.5,0.1-3.7,0.1C109.7,13.9,111.4,14.1,113.2,14.9z"/>
		<path class="st3" d="M70.6,45.1c-1,0-2,0-3,0c-2.4,0.1-4.3-0.3-5.1-1.9c-1.3-2.3-6.1-3.2-8.4-1.6c-0.4,0.3-1.4,0.7-1.4,0.7
			c-5-3.2-6.8,1.2-10.1,1.8c-3.6,0.7-4.3-1.1-6.4-1.5c-1.4-1.6-0.1-3.1,2.2-2.8c3.2,0.5,2.7-0.3,2.9-1.5c0.3-2,1.1-4-1.1-5.8
			c1.5-1.2,3.9-0.9,5.8-1.4c1.3-0.1,2.6-0.1,3.9,0c1,0.1,1.9,0.3,2.8,0.4c1.2,0.2,2.3-0.2,3.5-0.2c1.4,0,2.7,0.2,3.3,1.1
			c0.7,1-0.8,1.4-1.7,2c2.9,0.3,1.5-3.3,5.3-2.1c1.8,0.5,2.3,2.1,4.7,2.1c0.7-0.1,1.3-0.1,2-0.2c3.2-0.3,5.5-2.1,8.8-2.2
			c0.7-0.1,1.4,0,2.1,0.1c2.8,0.2,3.7,1.9,5.8,2.7c3.1,2-1.6,3.5-0.8,5.4c-0.4,0.9-0.7,1.7-1.9,2.4C79.9,44.4,75.2,44.8,70.6,45.1z"
			/>
		<path class="st35" d="M9,17.5c4.4,0,7-2.5,10.9-3.2c3.8-0.2,7.4,0.5,10.9,1.3c1.2,0.4,2.4,0.8,3.1,1.5c1.4,2.7-0.2,5.2-0.6,7.9
			c-0.7,1.4-2.7,2.2-4.3,3.2c-0.4,0.2-0.7,0.4-1.2,0.5c-2.5,0.7-5,1.5-7.6,1.9c-2.4,0.1-3.5,1.6-5.6,2.1c-1.9-0.5-1.6-1.6-2-2.6
			c1.9-2,3.7-4,3.6-6.4c-0.1-1.8-0.7-3.3-4.5-3.2C6.6,20.7,6.5,20.5,9,17.5z"/>
		<path class="st36" d="M32.2,28.1c-0.9,2.1-3.6,3.1-6.7,3.8c-2.8,0.6-5.5,1.4-8.3,2.1c-0.9,0.1-1.5-0.2-1.8-0.7
			c0-2.3,3.1-2.6,5.7-3.2c2.6-0.3,4.9-0.9,6.9-2l-0.1,0.1c0.9-0.5,1.8-1,2.9-1.2C32.7,26.6,32.8,27.3,32.2,28.1z"/>
		<path class="st37" d="M38.1,26.3c-1.6,0.2-3.3,0.4-4.9,0.6c-0.4-0.2-0.7-0.5-0.7-0.9c0.6-1.4-0.7-3,1.3-4.3
			c0.8-0.5,1.9-0.6,2.9-0.4c2.3,0.6,4.2,1.6,5.8,2.8c0.4,0.6,0,1.1-0.6,1.6c-0.5,0.3-1.1,0.5-1.8,0.6C39.4,26.4,38.7,26.3,38.1,26.3
			z"/>
		<path class="st38" d="M3.7,40.7c0.3-0.2,0.7-0.4,1-0.6c2.1,1.1,5.1,0.1,7.1,1.3c-0.3,0.2-0.7,0.4-1,0.6c-1,0.1-2.2,0-2.8,0.4
			C3.3,45,3.7,42.7,3.7,40.7z"/>
		<path class="st39" d="M15.7,33.1c0.5,0.3,0.9,0.6,1.4,0.9c-0.5,0.5-1.2,1.3-2,0.5c-1.3-1.3-4.3-2.4-2.5-4.4
			c0.7,0.8,1.4,1.6,2.1,2.3C15.3,32.4,15.5,32.8,15.7,33.1z"/>
		<path class="st37" d="M46.3,31.9c-1.9,0.7-4,0.6-6.1,0.6c-0.7-0.2-1.4-0.4-2-0.6c0.3-0.2,0.6-0.4,1-0.5c1.9-0.5,4.5-0.2,5.5-1.8
			c0.6-0.3,1.2-0.5,1.9-0.2c0.7,0.5,0.8,1.1,0.6,1.7C46.9,31.4,46.6,31.7,46.3,31.9z"/>
		<path class="st40" d="M33.1,26.2c0,0.2,0,0.4,0.1,0.6c-0.3,0.4-0.6,0.8-1,1.2c-1.4-1.9-2.8,0.7-4.3,0c0.1-1.6,3-1.5,4-2.6
			C32.6,25.6,32.7,26,33.1,26.2z"/>
		<path class="st41" d="M39.4,31.8c-0.4,0-0.9,0.1-1.3,0.1c0-1.9-0.1-3.7-0.1-5.6c0.4-0.2,0.7-0.4,1.1-0.7
			C41.4,27.7,41.4,29.7,39.4,31.8z"/>
		<path class="st42" d="M36.1,18.1c0.3-0.2,0.7-0.4,1-0.6c1.2-1,2.1-2.3,4.7-2.2c1.8,0.1,3.6-0.3,5.3,0.3c0.4,0.4,0.8,0.8,1.2,1.2
			c-0.1,0.1-0.3,0.2-0.4,0.3c-1.4,0.7-3.7,0.4-5,2.5c2.1-0.8,3.3-1.8,5-1.4c0.5,0.1,0.9,0.3,1.2,0.6c1,1.2,0.9,2.5,0.4,3.7
			c-0.2,0.3-0.4,0.6-0.8,0.8c-1,0.6-2.1,0.9-3.5,1c-3.8-0.1-6.1-1.8-8.6-3.4c-0.6-0.3-0.9-0.7-1.2-1.2
			C35.1,19.2,35.4,18.6,36.1,18.1z"/>
		<path class="st38" d="M50,6.4c-2.4,1-4.3,1.5-5.4,2.6c-0.9,0.9-2,0.5-3,0.1c-0.9-0.4-1.5-0.9-1-1.6c0.6-0.8,1.6-0.5,2.6-0.4
			c2.6,0.4,4.1-0.5,5.3-1.7c1.3-1.2,2.9-1.7,5-0.6c0.6,0.3,1.8,0.9,1.2,0.9c-3,0.3-1.3,3.1-4.1,3C48.8,8.7,50.1,7.4,50,6.4z"/>
		<path class="st38" d="M41,15.5c-1.3,0.6-2.6,1.3-3.9,1.9c1-1.6-3.1-3-0.3-4.7c1.2-0.8,1.8-1.8,3.9-1c2.2,0.8,0.5,1.5-0.3,2.2
			c-1,0.8-0.1,1,1,1.1C41.6,15.3,41.5,15.4,41,15.5z"/>
		<path class="st43" d="M50.3,16.8c0-0.7,0-1.4,1-1.9c0,0,0.2,0.2,0.2,0.2c1.1,0.6,1.2,1.5,1.3,2.3c0.2,2-0.8,4.3,4,4.9
			c0.3,0,0.2,0.6,0.2,0.9c-2,1.9-4.4,1.7-7,0.6C49.1,21.4,48.5,19.1,50.3,16.8z"/>
		<path class="st44" d="M33.1,26.2c-0.4-0.3-0.8-0.5-1.1-0.8c0.3-2.9,1.9-5.7,1.1-8.6c1.2-0.4,1.5,0.3,2.1,0.6c0,0.2,0,0.4,0,0.6
			c-0.1,0.8,0.6,1.6,0.6,2.4c-0.2,0.6-1,0.9-1.5,1.3C32.7,23.2,33.2,24.8,33.1,26.2z"/>
		<path class="st37" d="M50.3,16.8c0,2.3,0,4.6,0,6.9c-1.2,0.4-2.2,0.4-2.1-0.7l0,0c1.1-1.4,0.9-2.9,0.1-4.4l0,0
			c-0.8-0.6-0.8-1.3,0-2c0,0,0,0,0,0C48.9,16.8,49.6,16.8,50.3,16.8z"/>
		<path class="st45" d="M21.9,11.8c1-0.6,2-1.3,3-1.9c0.7,0.1,1.6,0,1.9,0.2c0.9,0.7-0.4,0.8-1.1,1C24.5,11.4,23.2,11.6,21.9,11.8z"
			/>
		<path class="st38" d="M35.1,20.6c0.3-0.8-1.7-1.7,0-2.5c0.3,0,0.7,0,1,0c0,0.6,0.1,1.2,0.1,1.8C36.7,20.6,36.1,20.7,35.1,20.6z"/>
		<path class="st38" d="M35.1,17.4c-0.7-0.2-1.4-0.4-2.1-0.6c-0.7-0.4-1.5-0.8-2.2-1.2C32.8,15.7,34.7,15.9,35.1,17.4z"/>
		<path class="st46" d="M41,15.5c0.1-0.2,0.3-0.3,0.4-0.5c1.9,0.2,4.1-0.5,5.7,0.6C45.1,15.6,43.1,15.5,41,15.5z"/>
		<path class="st47" d="M62.5,43.2c1.7,0.6,3.4,1.3,5.1,1.9c0.1,0.4,1,0.8,0,1.3c-2.1-0.1-4.8-2.3-6.1,0.6c-1.6,0-3.2,0-4.5-1.3
			c3.3-0.3,2.7-1.8,2.5-3.1C60.5,42.8,61.5,43,62.5,43.2z"/>
		<path class="st34" d="M48.2,23c0.5,0.5,1.3,0.7,2.1,0.7c2.1-0.3,5.2,0.9,6.1-1.4c1.4-0.3,2.4,0.3,3.6,0.6c1.5,0.3,3-0.1,4.5-0.1
			c2.8-0.1,3.5-1.1,3.6-2.7c0.1-1.4-0.7-2.9,1.5-4c1.9,1.8,0.6,3.8,0.9,5.7c0.2,1.1,0.2,2.2,2.4,2.3c2,0.1,3.7-0.5,3.6-1.9
			c0-1.1,1.2-1.6,2-2.4c-0.8-0.5-1-1.1-0.7-1.8c0.3-0.5,0.8-0.8,1.8-0.7c1.3,0.7,1.2,1.7,1,2.6c-0.8,3.2,1.7,4.2,6.7,3.9
			c-0.6-1.5-0.9-3,1.4-4.1c-0.8-0.5-1.1-1.1-0.7-1.8c0.3-0.5,0.8-0.8,1.8-0.7c1.9,1.4,1.4,3.1,0.9,4.4c-0.9,2.6,0.6,2.7,3.7,1.9
			c1.2-0.3,2.5-0.6,3.7-0.8c0,0-0.1,0-0.1,0c1.7,0.7,3.3,0.7,4.9-0.1c-0.1-0.2-0.1-0.3,0-0.5c1.4-1.5,2.7-1.2,4.1,0
			c0.3,0.2,0.7,0.4,1,0.7c1.1,0.8,2.6,0.5,4,0.6c-0.8,0.8-3,0.5-3,1.8c-2,0.5-4.8-0.8-6.2,1.1c-0.6,0.4-1.1,0.9-2,1.2
			c-0.7,0.2-1.3,0.2-2,0c-1-0.4-1.8-1.1-3.2-1.1c-1.2-0.1-2.5-0.2-3.7,0.1c-0.8,0.1-1.6,0.1-2.4,0c-0.6,0-1.1-0.1-1.7-0.2
			c-0.6,0-1.1,0-1.7,0c-1,0-2-0.1-2.9-0.1c-1.4,0-2.9,0-4.3,0.1c-1.2,0-2.4,0.1-3.5,0.4c-0.8,0.2-1.2,0.6-1.3,1.1
			c0.2,1.2-0.8,2.6,1.6,3.4c1.1,0.2,2.3,0.3,3,1c-3.3,0.4-5.5,2.5-9.1,2.5c0.2-1.4,1.3-2.8-1-4c-0.8-0.2-1.6-0.4-2.2-0.9
			c-0.2-0.2-0.3-0.5-0.3-0.8c0.2-0.6,0.5-1.2,0.1-1.8c-0.1-0.3-0.1-0.7-0.4-1c-0.7-0.3-1.5-0.2-2.3-0.2c-0.6,0-1.2,0-1.9,0
			c-0.8,0-1.6,0-2.4,0.1c-1,0.2-1.8,0.6-2.9,0.7c-1.7,0-3.2-0.7-4.9-0.8c-0.4,0-0.8,0-1.3,0c-0.4,0-0.8,0-1.3,0
			c-2.4,0.4-0.8,2.2-2.7,2.8c-0.4,0.3-0.8,0.5-1.2,0.8c-4.4-0.1-4.9-0.7-3.9-4.6c0.3-0.4,0.7-0.8,1-1.2c0.8-0.6,2.3,0,3.1-0.7
			C46.2,23.5,47.2,23.3,48.2,23z"/>
		<path class="st48" d="M112.2,27.5c0.1,0.2,0.1,0.4,0.2,0.6c0.8,0.8,0.5,1.6,0,2.3c-3.5,3.4-6,3.3-10.8-0.3
			c-0.3-0.8-0.1-1.5,1.5-1.7c0.7,0.3,1.4,0.4,2-0.1c1.8-0.5,3.2-1.4,5.2-1.6C110.9,27,111.5,27.2,112.2,27.5z"/>
		<path class="st49" d="M110.2,26.7c-1,1.3-2.5,2.1-5,2c-0.7-0.4-1.6-0.5-2.6-0.4c-1.7-0.5-1.5-1.3-0.5-2.1c1.5-3.1,4.2-2.1,7-0.8
			C109.5,25.9,109.9,26.3,110.2,26.7z"/>
		<path class="st50" d="M112.1,47c-1.5-0.7-3.8-0.2-5.1-1.3c-2.2-1.4-5.5-2.7,0.1-4.4c0.8-0.2,2.4-2.5,4-3.8
			c0.1-0.3,0.3-0.5,0.6-0.7c0.4-0.2,0.8-0.3,1.2-0.3c0.7,0,1.3,0.2,1.8,0.5c1.5,1.1,3-1.3,4.5-0.1c-1,2.1-2.2,3.9-6.7,3.2
			c-1.6-0.2-2.4,0.5-2.3,1.5c0,1.2,1,1.7,2.9,1.2c1.2-0.3,2.2-0.4,3.1,0.3c-1.6,0.3-3.2,0.5-5.1,0.8C111.5,45,114.6,45.7,112.1,47z"
			/>
		<path class="st51" d="M111.4,30.1c0.3-0.6,0.6-1.3,0.9-1.9c2-0.2,3.9-0.4,5.9-0.6c0,0.4,0,0.8,0,1.3c2.7,1,1.5,3.1,3,4.4
			c0.8,0.8,1.4,1.6,1,2.5c-0.3,0.2-0.7,0.4-1,0.6c0,0-0.5,0-0.5,0l-0.5,0c-1-0.2-1.5-0.7-1.9-1.3C118.6,32,113.4,31.9,111.4,30.1z"
			/>
		<path class="st52" d="M119.2,35c0.8,0.3,1,0.7,1,1.3c-0.3,0.2-0.7,0.4-1,0.6c-1.1,0.1-1.7,0.4-2.1,1c-0.5,0.8-1.8,1.5-3,1.1
			c-1.5-0.5,0.3-1.4,0.1-2.2C115.2,35.6,116.1,34.2,119.2,35z"/>
		<path class="st53" d="M84.8,40.1c-0.4-1.2-0.8-2.3,1.2-3.3c1.1-0.5,1-1.2-0.1-1.8c-1.1-0.8-1.7-1.7-0.9-2.8c0.9-0.5,2-0.6,3.2-0.6
			c7.4-0.2,14.8-0.3,21.1,2.7c1.4,0.7,3.4,1.1,3,2.6l0,0c-2.6,0.9-5.7-0.8-8.1,0.6c-0.7,0.4-1.4,0.8-2,1.3c-1.4,0.6-2.6,1.5-4.7,1.2
			c-3.9-1.4-7.7-1.5-11.3,0.4C85.6,40.4,85.1,40.3,84.8,40.1z"/>
		<path class="st54" d="M84.8,40.1c0.3,0,0.7,0,1,0c2.5-0.1,5.1,0,7.5-1c1.1-0.5,2.6-0.2,3.7,0.4c1.7-0.2,3.4-0.4,5.1-0.6
			c-1.4,1.3,1.8,1.5,1.5,2.6c-2.2,0.2-4.4,0.3-6.6,0.5c-1.2,0.2-2.3,0.6-3,1.3l0,0c-2.8,0.4-5.5,0.1-8.1-0.6c-0.7,0-1.4,0-2,0
			C83.9,41.7,83.4,40.7,84.8,40.1z"/>
		<path class="st55" d="M85.8,42.6c2.8-0.1,5.5,0.1,8.1,0.6c0,0.2,0,0.4,0,0.6c-0.6,0.3-0.2,1-1,1.3c-0.7-0.4-1.3-0.8-2-1.3
			C88.9,43.8,86.8,44,85.8,42.6z"/>
		<path class="st54" d="M104,37.5c2.2-2.5,5.4-0.4,8.1-0.6c-0.3,0.2-0.7,0.4-1,0.6C108.8,37.5,106.4,37.5,104,37.5z"/>
		<path class="st3" d="M93.9,43.2c-0.1-1.5,0.7-2.1,3-1.3C96.4,42.8,95.3,43.2,93.9,43.2z"/>
		<path class="st56" d="M92.9,45.1c0-0.5,0.3-1,1-1.3c0.7,0.4,1.3,0.8,2,1.3C94.9,45.9,93.9,45.8,92.9,45.1z"/>
		<path class="st57" d="M122.3,35.7c-0.7-0.8-1.1-1.6-1-2.5c0.7,0.2,1.3,0.4,2,0.6C123.3,34.5,123.4,35.2,122.3,35.7z"/>
		<path class="st58" d="M59.4,23.7c-1-0.4-2-0.9-3-1.3c-4.3,1.5-5,1.2-5.1-1.9c0-1.8,0.1-3.5,0.2-5.3c1.9,0,3.8-0.1,5.8-0.1
			c1.9,0.5,4.2,0.8,5,2.3c0,1.6-1,3.3,0.9,4.7c0.1,0.5,0,0.9-0.4,1.3C61.6,23.3,60.8,24.2,59.4,23.7z"/>
		<path class="st59" d="M78.6,18.1c0,0.6,0,1.2,0,1.8c-2,0-3.2,0.5-3,1.9c0.1,0.8-0.4,1.4-2,1.4c-2,0-2-0.8-2-1.7c0-1.4,0-2.7,0-4.1
			c0-1-0.6-2.4,2-2.3c2.2,0,5.4-1,5.9,1.6C79.3,17.2,77.7,17.3,78.6,18.1z"/>
		<path class="st59" d="M88.8,18.1c0,0.6,0,1.2,0,1.8c-2.5,0-3.1,0.8-3,2.2c0.1,0.8-0.7,1.1-1.9,1.1c-1.5,0-2.1-0.4-2.1-1.3
			c0-2.3,0.1-4.5,0.1-6.8c2.2,0,4.5,0,6.7-0.1c0.7,0.5,1.2,1,1.1,1.7C89.5,17.2,87.8,17.3,88.8,18.1z"/>
		<path class="st60" d="M67.6,15c0.2,0.1,0.5,0.1,0.7,0c1.8,2.4,0.7,4.9,0.6,7.3c0,1.6-2.6,1.5-5.3-0.1c-1.3-2-0.6-4-0.4-5.9
			C63.9,14.8,65.2,14.2,67.6,15z"/>
		<path class="st61" d="M64.4,21.8c0.2,1,1,1.5,2.7,1.3c1.6-0.2,1.5-1,1.4-1.7c-0.1-2.1-0.2-4.3-0.3-6.4c1,0.1,1.3,0.7,1.4,1.2
			c0,1.3-0.3,2.7,0,4c0.7,3.1-1.5,4.1-6.1,3.6c-0.4-0.2-1-0.3-1.1-0.6c0-0.4,0-0.8,0.1-1.2C63.1,21.5,63.8,21.5,64.4,21.8z"/>
		<path class="st61" d="M67.6,15c-1.3,0.1-2.9,0.1-3.2,1.2c-1.1,0.4-1,1.7-2.9,1.3c-0.7-1.2-2.5-1.8-4.1-2.5c1.6-0.3,3.3,0.5,5-0.6
			C64,13.2,65.9,14.3,67.6,15z"/>
		<path class="st62" d="M78.6,18.1c-0.9-0.2-2.5,0-2.3-0.7c0.3-1,2.2-0.4,3.2-0.7c0,0.2,0.1,0.5,0.1,0.7
			C79.3,17.7,79,17.9,78.6,18.1z"/>
		<path class="st33" d="M107.1,22.5c-1.4-0.6-2.8-0.5-4.1,0c-1.1-1.1-0.9-2.2-0.3-3.5C105,19.8,106.4,21,107.1,22.5z"/>
		<path class="st33" d="M103,22.9c-1.6,1.2-3.3,1.1-4.9,0.1C99.7,23.2,101.3,23.3,103,22.9z"/>
		<path class="st63" d="M92.1,15c1.2,0,2.4,0,3.5,0c0.1,2.2,0.1,4.4,0.2,6.6c0,0.8-0.1,1.5-1.7,1.6c-1.9,0.1-2.3-0.6-2.2-1.6
			C92,19.4,92.1,17.2,92.1,15z"/>
		<path class="st62" d="M88.8,18.1c-0.9-0.1-2.5,0-2.3-0.7c0.3-1,2.2-0.4,3.2-0.7c0,0.2,0,0.5,0.1,0.7
			C89.5,17.7,89.1,17.9,88.8,18.1z"/>
		<path class="st64" d="M63.5,32.5c-1.2,0.1-3.1-0.2-2.5,1.2c1,2.1-0.7,1.8-2.7,1.2c-1.2-0.4-3.1,1.2-3.6-0.4
			c-0.5-1.9,1.8-0.8,3-0.9c0.7-0.1,1.3-0.4,1-0.9c-0.2-0.3-1-0.7-1.5-0.7c-1.6,0.1-3.3,0.3-4.9,0.5C52,32.3,51.9,32,52,31.7
			c1.6-1.1,0.5-4.5,5.6-2.4c0.9,0.4,1.5,0.9,2.5,1.2c0.4,0.1,0.7,0.2,1.1,0.3c0.7,0.2,1.5,0.4,2.2,0.7c0.3,0.2,0.5,0.4,0.5,0.7
			C63.7,32.3,63.6,32.4,63.5,32.5z"/>
		<path class="st64" d="M67.5,35c-2.4,0.4-3.2-0.1-4.1-2.5c0,0,0,0,0,0c2.3-1,4.3-1.2,5.7,0.7C69.2,34,68.3,34.5,67.5,35z"/>
		<path class="st65" d="M67.5,35c0-0.5,0.3-1,1-1.3c1-0.7,0.1-1.4-0.1-2c-0.1-0.6,0.2-1.2,0.8-1.7c2,1.6,4.5,3.2,0.3,4.9
			C68.9,35,68.2,35,67.5,35z"/>
		<path class="st34" d="M84.8,32.5c0.7,0.8,1.1,1.6,1,2.5c-0.4,0.4-1.7,1-1.6,0.6c0.1-1.7-2.1-2.2-3.4-3.1c0.2-0.4,0.7-0.7,1.3-0.8
			C83.2,31.6,84.2,31.8,84.8,32.5z"/>
		<path class="st66" d="M49.1,25.7c0.4,0,0.8-0.1,1.2-0.1c2.2,2.1,2.2,4.2,0,6.2c-1.3,0-2.7,0-4,0c0.1-0.3,0.1-0.5,0.2-0.8
			c0.3-0.2,0.6-0.3,0.8-0.5c0.2-0.2,0.4-0.4,0.5-0.7C48.2,28.5,47.3,27,49.1,25.7z"/>
		<path class="st67" d="M50.3,31.9c0-2.1,0-4.2,0-6.2c0.4,0,0.8,0,1.3,0.1c2.2,2,1.4,4,0.8,6.1c0,0.2,0,0.5,0,0.7
			C51.6,32.3,51,32.1,50.3,31.9z"/>
		<path class="st68" d="M81.8,31.9c-0.4,0.2-0.7,0.4-1.1,0.6c-0.7,0-1.3,0-2,0c-1.4,0-2.7,0-4.1,0c-1.1-0.9-0.6-1.7,0.4-2.4
			c1.9-0.8,2.6,0.7,4,0.9c0.9,0.1,1.7,0.3,2.4,0.6C81.6,31.7,81.7,31.8,81.8,31.9z"/>
		<path class="st69" d="M15.7,33.1c-0.4-0.2-0.7-0.4-1.1-0.6c0.5-1.8,2.3-2.5,5.1-2.5c0.9-0.2,2-0.6,2,0.5
			C19.3,30.9,16.8,31.3,15.7,33.1z"/>
		<path class="st70" d="M21.8,30.5c-0.7-0.2-1.3-0.4-2-0.5c2.8-0.5,5.1-1.9,8.2-1.9C27.3,30.2,24.1,29.9,21.8,30.5z"/>
		<path class="st71" d="M19,18.7c-0.4-1.2,0.6-1.8,2.4-1.8c2,0,1.8,1,1.5,1.8C21.6,19.5,20.3,19.1,19,18.7z"/>
		<path class="st71" d="M19,18.7c1.3-0.6,2.6,0,3.9,0c0.1,0.7,0.1,1.3-1.3,1.4C20.1,20.2,18.9,19.8,19,18.7z"/>
		<path class="st72" d="M41.2,25.6c1.4,0.8,0.8,1.9,0.8,2.9c0,1.4,1.3,1.7,3.1,1.7c-0.4,2.5-3.7,1.2-5.7,1.6
			c-0.7-2.1-0.4-4.1-0.2-6.2C39.9,25.6,40.5,25.6,41.2,25.6z"/>
		<path class="st44" d="M45.3,23.7c-0.7,0.7-1.9,0.7-3.1,0.7c-2-0.6-4-1.2-5.1-2.5c-0.6-0.5-0.6-0.9,0.1-1.3
			C38.8,22.6,41.5,23.7,45.3,23.7z"/>
		<path class="st41" d="M37.2,20.5c0,0.4,0,0.9-0.1,1.3c-1,0-2,0-3,0c0-0.5,0.2-1,1-1.3c0.4-0.3,0.8-0.5,1.1-0.8
			C36.6,20.1,36.9,20.3,37.2,20.5z"/>
		<path class="st73" d="M49.1,25.7c-0.1,1.9,1.1,3.8-0.8,5.5c-1-1.3-0.3-2.7-0.4-3.6c-0.8,0.8,0.6,2.3-0.5,3.5l-0.4,0
			c0,0-0.4,0-0.4,0c0-0.6-0.1-1.2-0.1-1.8C47.9,28.3,42.8,25.3,49.1,25.7z"/>
		<path class="st74" d="M48.2,16.8c0,0.7,0,1.3,0,2c-1.1,0.1-2.4-0.2-3,0.7c-0.5,0.8,0,2.1-2.5,1.6c-1.2-0.2-1.5-1-1.6-1.8
			c-0.1-1.2,0.7-2,2.6-2.3C45.2,16.9,46.7,16.9,48.2,16.8z"/>
		<path class="st43" d="M48.3,18.7c1.6,1.5,1.7,2.9-0.1,4.4C48.2,21.6,48.2,20.2,48.3,18.7z"/>
		<path class="st75" d="M52.4,31.8c-1.7-2-0.7-4.1-0.8-6.1c2.1-0.4,3.3,0.6,4.7,1.2c0.8,0.2,1.6,0.4,2.2,0.8
			c0.6,0.4,1.2,0.8,1.3,1.3c-0.3,0.8-1.3,1-2.5,1.1c-1-0.1-2.7-2.3-2.9,0.3C54.4,31.3,53.7,31.7,52.4,31.8z"/>
		<path class="st76" d="M68.6,26.2c0,0.8-1.2,0.7-1.9,1c1.2,0.7,1.5,1.5,0,2.2c0,0.1,0,0.3,0,0.4c0.4,0.6,2.7,0.4,1.8,1.3
			c-0.8,0.9-2.5,0.7-3.9,0.3c-0.5-0.2-0.8-0.5-1.1-0.9C62.6,26.3,63.2,25.8,68.6,26.2z"/>
		<path class="st77" d="M63.5,31.9c-1-0.1-2-0.2-3.1-0.3c0.2-2-1.3-4.1,0.9-5.9c0.8,0,1.6,0,2.4,0c0.4,0.4,0.3,0.8,0.2,1.2
			c-0.5,1.1-0.4,2.2-0.2,3.3c0.2,0.4,0.4,0.8,0.8,1.1l0,0c0.3,0.1,0.4,0.3,0.4,0.4c0,0.2-0.1,0.3-0.2,0.3
			C64.2,32.2,63.8,32.2,63.5,31.9z"/>
		<path class="st78" d="M61.3,25.7c-0.1,2,1.1,4-0.9,5.9c0,0,0-0.3,0-0.3c-1.6-0.8-0.5-1.9-0.5-2.8c0-0.2,0.1-0.4,0.2-0.4
			c-0.5,0.1-0.3,0.5-0.7,0.6c-0.7-0.2-1.3-0.4-2-0.6c0.8-0.8-0.2-1.9,1.2-2.5C59.5,25.7,60.4,25.7,61.3,25.7z"/>
		<path class="st79" d="M78.7,26.2c1.7-0.8,3.4-0.6,5.1,0c0.6,0.6,0.1,1.1-0.4,1.5c-0.5,0.3-1,0.6-1.7,0.7c-0.5,0.1-0.9,0.1-1.4,0
			c-1-0.2-1.7-0.5-2.1-1.1C78,27,78.1,26.6,78.7,26.2z"/>
		<path class="st80" d="M88.8,26.2c1,0,2,0,3.1,0c1.8-0.2,2.4,0.4,2.5,1.3c-0.1,0.3-0.4,0.6-0.8,0.8c-2.1,0.6-3.8,0.4-5.1-0.8
			C88.2,27.1,88.2,26.7,88.8,26.2z"/>
		<path class="st81" d="M93.9,28c0-0.2,0-0.4,0-0.6c0.5-0.5,1.4-0.8,2-1.2c2.9-1.3,2.8,0.2,3.2,1.2c0.3,0.3,0.3,0.6,0,0.8
			c-0.4,0.2-0.8,0.4-1.3,0.5c-1.3,0.2-2.4,0.1-3.5-0.3C94.2,28.3,94,28.2,93.9,28z"/>
		<path class="st65" d="M75.6,30.2c-0.3,0.8-0.7,1.6-1,2.4c-3.4-1.3-1.6-3.3-2-5.1c0.8-0.2,1.3,0.1,1.7,0.4
			C75,28.6,75.5,29.3,75.6,30.2z"/>
		<path class="st82" d="M64.4,31.3c-0.4-0.2-0.7-0.5-1.1-0.7c-0.6-1.2-0.6-2.5,0-3.7c0.1-0.4,0.2-0.8,0.3-1.2
			c1.6,0.1,3.5-0.5,4.9,0.5C61.6,26.2,65.7,29.6,64.4,31.3z"/>
		<path class="st83" d="M82.8,27.5c0.3-0.4,0.7-0.8,1-1.3c1-0.7,2,0.3,3,0c0.9,0.6,1,1.3,0.4,2c-0.4,0.3-0.9,0.5-1.5,0.6
			C84.3,28.7,82.7,28.8,82.8,27.5z"/>
		<path class="st84" d="M78.7,26.2c0,0.4,0.1,0.8,0.1,1.3c-0.6,0.9-1.8,1.2-3.3,0.9c-1.1-0.6-1.9-1.2-0.9-2.1
			C76,26.4,77.3,25.2,78.7,26.2z"/>
		<path class="st85" d="M99,28.1c0-0.2,0.1-0.4,0.1-0.7c0.6,0,1.2,0,1.8,0c0.9,0.6,0.7,1.2,0.5,1.9c-0.7,0.9,0.5,2.6-2.6,2.6
			c-0.7-0.4-1-0.8-1.1-1.4C97.5,29.6,97.9,28.8,99,28.1z"/>
		<path class="st82" d="M64.7,31.8c-0.1-0.2-0.1-0.4-0.2-0.5c0.7-0.5,4.7,1,2.2-1.4c0.9,0.1,1.8,0.1,2.7,0.2
			c0.1,0.5,0.1,1.1,0.2,1.6C67.9,32.6,66.3,32.3,64.7,31.8z"/>
		<path class="st86" d="M95.9,26.2c0.7,1.3-0.9,1.1-2,1.2c-0.7-0.4-1.3-0.8-2-1.2C93.2,25.2,94.6,26,95.9,26.2z"/>
		<path class="st87" d="M100.9,29.4c0-0.6,0-1.3,0-1.9c0.2-0.5,0.3-1,1.2-1.1c0,0.9-0.2,1.8,1.9,1.8c0.3,0.1,0.3,0.3,0.2,0.4
			c-0.1,0.1-0.2,0.2-0.3,0.2c-1.4,0-1.9,0.4-2,1.2C101.2,30.2,100.7,30.1,100.9,29.4z"/>
		<path class="st88" d="M74.6,26.3c0.3,0.6,0.6,1.2,0.9,1.8c-0.6,0.3-1.3,0.4-1.9,0c-0.3-0.2-0.6-0.5-1-0.7
			C72.8,26.7,73.3,26.2,74.6,26.3z"/>
		<path class="st37" d="M58.7,25.6c-0.5,0.8,0.5,1.9-1.2,2.5c-0.4-0.4-0.7-0.8-1.1-1.2C57.1,26.5,57.9,26.1,58.7,25.6z"/>
		<path class="st37" d="M62.4,23.1c0.4,0.2,0.7,0.4,1.1,0.6c-1.4-0.2-2.8,1.1-4.1,0C60.4,23.5,61.4,23.3,62.4,23.1z"/>
		<path class="st82" d="M66.6,29.5c0.5-0.7,0.4-1.5,0-2.2C68.8,28,69.6,28.8,66.6,29.5z"/>
		<path class="st39" d="M86.8,28.1c0-0.6,0-1.3,0-1.9c0.3-0.2,0.6-0.4,1-0.5c0.9,0.5,0.4,1.2,0.6,1.9c0,0.3-0.1,0.5-0.4,0.7
			C87.5,28.3,87.2,28.3,86.8,28.1z"/>
		<path class="st89" d="M87.8,28.1c0-0.8,0-1.7-0.1-2.5c0.4,0.2,0.7,0.4,1.1,0.6c0,0.4,0,0.8,0,1.3C89.2,28.1,88.7,28.2,87.8,28.1z"
			/>
		<path class="st54" d="M100.9,29.4c0.4,0.2,0.8,0.4,1.2,0.5c0.8,0.4,1.7,0.7,2.4,1.1c3.2,1.9,5.4,1.3,6.9-1c4.2,0.7,9.1,1,7.8,5
			c-2.5-0.2-2.8,1.9-5.1,1.9c-0.7,0-1.4,0-2,0c-7-3.9-15.3-5-24.3-4.4c-0.2-0.2-0.3-0.3-0.3-0.5c0.1-0.2,0.1-0.3,0.2-0.3
			c1.3-0.8,3.1-0.6,4.6-1c0.9-0.2,1.7-0.4,2.7-0.4c0.5,0,0.9,0.1,1.3,0.2c1,0.3,1.7,0.9,2.6,1.4C100.6,31.4,99.5,30,100.9,29.4z"/>
		<path class="st90" d="M104,28.8c0-0.2,0-0.4,0-0.6c1.4-0.6,0.8,0.4,1.2,0.6C104.8,29.1,104.4,29.3,104,28.8z"/>
		<path class="st3" d="M96.9,39.4c-1.5,0-3.4-0.3-4.2,0.6c-2.4,2.5-4.7,0.2-7,0C89.8,37,92.1,36.9,96.9,39.4z"/>
		<path class="st68" d="M87.8,31.9c0,0.2,0,0.4,0,0.6c-1,0-2,0-3,0c-1-0.2-2-0.4-3-0.6c0,0,0,0,0,0c-0.2-0.2-0.3-0.4-0.3-0.5
			c0.1-0.2,0.2-0.3,0.2-0.3c1.7-0.6,3.4-0.2,5,0.2C87.2,31.4,87.6,31.6,87.8,31.9z"/>
		<path class="st30" d="M61.4,17.4c1.3-0.2,0.6-2.1,2.9-1.3c0,1.9,0,3.8,0.1,5.7c-0.7,0-1.3,0-2,0C57.8,20.8,60.7,19,61.4,17.4z"/>
		<path class="st91" d="M56,18.5c-0.3-0.4-0.6-0.6-0.6-0.8c0.1-0.2,0.6-0.4,0.9-0.6c0.2,0.2,0.7,0.5,0.7,0.6
			C57,17.9,56.5,18.1,56,18.5z"/>
		<path class="st92" d="M59.4,28.8c0.1-0.6,0.1-1.2,0.2-1.7c0.3,0,0.5,0,0.8,0c0,1.4,0,2.9,0,4.3c-1.7,0.2-2.4-0.4-3.1-1.2
			C58,29.7,58.7,29.2,59.4,28.8z"/>
		<path class="st93" d="M64.7,31.8c1.6,0,3.2-0.1,4.8-0.1c0.1,0.8,0.3,1.5-0.9,2.1c-0.7-1.9-3.3-1-5.1-1.3c0-0.2,0-0.4,0-0.6
			C63.9,31.9,64.3,31.9,64.7,31.8z"/>
		<path class="st94" d="M47.3,31.2c0-1.4,0-2.8,0-4.2c0.3,0,0.7,0,1,0c0,1.4,0,2.8,0,4.3c0,0-0.5,0-0.5,0L47.3,31.2z"/>
		<path class="st95" d="M73.6,28.1c0.6,0,1.3,0,1.9,0c1.1-0.2,2.2-0.4,3.3-0.6c0.6,0.2,1.3,0.4,1.9,0.7c0.6,0.5,0.1,1-0.4,1.4
			c-0.6,0.5-1.1,1-1.1,1.6c-0.1,0.2-0.3,0.4-0.6,0.6c-2.1,0.2-1.7-1.3-3-1.7C73.8,30,73.5,29.1,73.6,28.1z"/>
		<path class="st96" d="M79.6,29.5c0.4-0.4,0.7-0.9,1.1-1.3c0.3,0,0.6,0,1-0.1c0.8,0.2,1.4,0.6,1.5,1.2c-0.1,0.5-0.4,1-0.7,1.5
			c-0.2,0.2-0.4,0.4-0.7,0.6c0,0.2,0,0.3,0,0.5c-1,0-2,0-3.1-0.1c0-0.2,0-0.4,0-0.5C78.7,30.6,78.7,30,79.6,29.5z"/>
		<path class="st97" d="M63.4,26.9c0,1.2,0,2.5,0,3.7C62,29.4,62,28.1,63.4,26.9z"/>
		<path class="st98" d="M82.8,29.3c-0.4-0.4-0.7-0.8-1.1-1.2c0.4-0.2,0.7-0.4,1.1-0.6c0.7,0.7,1.9,0.7,3,0.7
			c0.2,0.1,0.3,0.3,0.3,0.5c0,0.2,0,0.3-0.1,0.3c-0.5,0.5-1.2,0.8-2.2,0.8C83.4,29.7,83,29.5,82.8,29.3z"/>
		<path class="st99" d="M87.8,28.1c0.3-0.2,0.7-0.4,1-0.6c1.6,0.6,3.2,0.8,5,0.6c0,0,0,0.1,0,0.1c0.5,0.7-0.1,1.1-0.9,1.5
			c-0.9,0.3-1.8,0.4-2.8,0.4c-0.5,0-1-0.1-1.4-0.2c-0.7-0.2-1.2-0.5-1.4-1C87.3,28.6,87.5,28.4,87.8,28.1L87.8,28.1z"/>
		<path class="st100" d="M92.9,29.3c0.3-0.4,0.6-0.7,0.9-1.1c1.3,0,2.7,0,4,0c0.7,0.7,0,1.3-0.3,1.9c-0.4,0.3-1,0.6-1.7,0.6
			c-0.2,0-0.4,0.1-0.6,0C93.9,30.6,93,30.2,92.9,29.3z"/>
		<path class="st101" d="M97,30c0.3-0.6,0.6-1.2,0.9-1.9c0.4,0,0.8,0,1.1,0c0,0.8,0,1.7,0,2.5C97.9,31,97.4,30.6,97,30z"/>
		<path class="st102" d="M87.8,28.1c0,0.2,0,0.4,0,0.6c-0.7,0.4-1.4,0.3-2,0c0-0.2,0-0.3,0-0.5c0.3,0,0.7-0.1,1-0.1
			C87.1,28.1,87.5,28.1,87.8,28.1z"/>
		<path class="st103" d="M97,30c0.7,0.2,1.3,0.4,2,0.6c0,0.4-0.1,0.8-0.1,1.2c-1.5,0.1-2.7-0.1-3-1.2C96.2,30.5,96.6,30.2,97,30z"/>
		<path class="st104" d="M92.9,29.3c0.8,0.5,1.5,1,2.3,1.4c-0.6,0.5-1.4,0.6-2.3,0.6c-2.5,0.3-4.8,0.5-3-1.9
			C90.9,29.4,91.9,29.3,92.9,29.3z"/>
		<path class="st105" d="M89.9,29.4c-0.8,1.7,1.7,1.5,3,1.9c-1.5,1-3.4,0.4-5.1,0.6c-0.3,0-0.7-0.1-1-0.1c-0.5-1.2,0.8-1.8,2-2.4
			C89.2,29.4,89.5,29.4,89.9,29.4z"/>
		<path class="st106" d="M88.8,29.4c0.4,1.1-0.8,1.8-2,2.4c-1.7-0.1-3.4-0.3-5.1-0.4c0-0.2,0-0.5-0.1-0.7c0.5-0.5,1.3-0.8,2-1.2
			c0.7-0.2,1.4-0.5,2.1-0.7c0.7,0,1.3,0,2,0C88.1,29,88.5,29.2,88.8,29.4z"/>
		<path class="st107" d="M79.6,29.5c0.1,0.7,0.2,1.4-0.9,1.8C77.3,30.3,77.3,29.7,79.6,29.5z"/>
		<path class="st108" d="M83.7,29.5c0,0.8-0.8,1.1-2,1.2c-1-0.9,0.4-1,1.1-1.4C83.1,29.4,83.4,29.4,83.7,29.5z"/>
	</g>
</g>
</svg>
